Coordinates
version=1
nRows=37
nColumns=38
inDegrees=no

Units are S.I. units (second, meters, Newtons, ...)
If the header above contains a line with 'inDegrees', this indicates whether rotational values are in degrees (yes) or radians (no).

endheader
time	pelvis_tilt	pelvis_list	pelvis_rotation	pelvis_tx	pelvis_ty	pelvis_tz	hip_flexion_r	hip_adduction_r	hip_rotation_r	knee_angle_r	ankle_angle_r	subtalar_angle_r	mtp_angle_r	hip_flexion_l	hip_adduction_l	hip_rotation_l	knee_angle_l	ankle_angle_l	subtalar_angle_l	mtp_angle_l	lumbar_extension	lumbar_bending	lumbar_rotation	arm_flex_r	arm_add_r	arm_rot_r	elbow_flex_r	pro_sup_r	wrist_flex_r	wrist_dev_r	arm_flex_l	arm_add_l	arm_rot_l	elbow_flex_l	pro_sup_l	wrist_flex_l	wrist_dev_l
22.52	2.91223	1.35096	-1.23798	0.658198	-0.21362	0.948986	-0.256885	0.0392677	-0.033834	0.284492	-0.183609	0	0	-0.264759	-0.113526	-0.0777269	0.314696	-0.122025	0	0	-0.275049	0.103577	-0.0188618	-0.034963	-0.373606	0.456732	0.720848	1.5708	0	0	0.0622541	-0.22706	0.486838	0.673885	1.5708	0	0
22.53	2.91322	1.35089	-1.23858	0.658188	-0.213861	0.949012	-0.256467	0.0391326	-0.0335984	0.285216	-0.183366	0	0	-0.264112	-0.113585	-0.077656	0.315472	-0.122151	0	0	-0.275427	0.103547	-0.0189881	-0.0348716	-0.373478	0.455809	0.720758	1.5708	0	0	0.0632969	-0.226957	0.487505	0.671249	1.5708	0	0
22.54	2.91444	1.35094	-1.23935	0.658165	-0.214113	0.949037	-0.255962	0.038922	-0.0329868	0.285835	-0.183225	0	0	-0.263357	-0.113496	-0.0772399	0.316178	-0.122209	0	0	-0.275668	0.10349	-0.0191666	-0.0348399	-0.373434	0.454827	0.720808	1.5708	0	0	0.0641408	-0.226964	0.488234	0.669119	1.5708	0	0
22.55	2.91581	1.35114	-1.24027	0.65814	-0.21435	0.949045	-0.25549	0.0387147	-0.0315997	0.286069	-0.183109	0	0	-0.262495	-0.113322	-0.0767279	0.316825	-0.122286	0	0	-0.275715	0.103381	-0.0193197	-0.0346576	-0.373273	0.453814	0.720648	1.5708	0	0	0.0648514	-0.227042	0.488609	0.666963	1.5708	0	0
22.56	2.91645	1.35143	-1.24069	0.658137	-0.214575	0.94905	-0.254782	0.0385573	-0.0301688	0.286466	-0.18293	0	0	-0.261709	-0.113223	-0.0762682	0.317005	-0.122458	0	0	-0.275493	0.103488	-0.0192665	-0.0345166	-0.373236	0.452755	0.720618	1.5708	0	0	0.0653988	-0.227109	0.489013	0.665283	1.5708	0	0
22.57	2.91656	1.35171	-1.24077	0.658155	-0.214808	0.949051	-0.253825	0.0384208	-0.0291731	0.287294	-0.182704	0	0	-0.26096	-0.113241	-0.0759893	0.317043	-0.122704	0	0	-0.275366	0.103618	-0.0190961	-0.034328	-0.373196	0.451518	0.720709	1.5708	0	0	0.0659655	-0.227252	0.489497	0.664083	1.5708	0	0
22.58	2.91716	1.35185	-1.24114	0.658152	-0.215033	0.949056	-0.253135	0.038228	-0.0286864	0.288002	-0.182537	0	0	-0.260252	-0.113312	-0.0755713	0.317539	-0.122877	0	0	-0.275443	0.103724	-0.0191849	-0.0341246	-0.373188	0.450185	0.721018	1.5708	0	0	0.0664062	-0.227495	0.48968	0.663208	1.5708	0	0
22.59	2.918	1.35216	-1.24155	0.658127	-0.215211	0.949063	-0.252504	0.0379079	-0.0283795	0.288377	-0.18244	0	0	-0.259452	-0.113318	-0.0748758	0.31781	-0.123085	0	0	-0.275121	0.10388	-0.0194316	-0.034089	-0.37313	0.448542	0.721273	1.5708	0	0	0.0667108	-0.22773	0.490204	0.662651	1.5708	0	0
22.6	2.91813	1.35249	-1.24134	0.658096	-0.215395	0.949063	-0.251859	0.0377183	-0.0279112	0.288707	-0.182246	0	0	-0.258685	-0.113485	-0.074026	0.31798	-0.123307	0	0	-0.274762	0.104221	-0.0195574	-0.0340258	-0.373058	0.446638	0.721507	1.5708	0	0	0.0670322	-0.227959	0.490793	0.662262	1.5708	0	0
22.61	2.9181	1.3528	-1.24113	0.658064	-0.215568	0.94906	-0.251298	0.0375931	-0.0271556	0.288892	-0.182057	0	0	-0.258235	-0.113651	-0.0729438	0.317585	-0.123588	0	0	-0.274482	0.104537	-0.0194391	-0.0339975	-0.373074	0.444747	0.72184	1.5708	0	0	0.0673289	-0.22818	0.491203	0.661969	1.5708	0	0
22.62	2.91782	1.35298	-1.2408	0.65804	-0.215753	0.949058	-0.250895	0.0375158	-0.0261019	0.288899	-0.182046	0	0	-0.258043	-0.113804	-0.0718038	0.316855	-0.123804	0	0	-0.27435	0.104896	-0.019314	-0.0338083	-0.373176	0.442942	0.722355	1.5708	0	0	0.0674302	-0.22855	0.491407	0.662105	1.5708	0	0
22.63	2.9174	1.35318	-1.24037	0.658024	-0.215933	0.949067	-0.250505	0.0374404	-0.0250053	0.288816	-0.182076	0	0	-0.257972	-0.11386	-0.0706737	0.315976	-0.123991	0	0	-0.274174	0.105372	-0.0191566	-0.0337108	-0.373231	0.440545	0.723016	1.5708	0	0	0.067365	-0.229023	0.491662	0.662581	1.5708	0	0
22.64	2.91707	1.35345	-1.24008	0.65802	-0.216087	0.949089	-0.250135	0.037348	-0.0240595	0.288604	-0.182118	0	0	-0.257961	-0.113823	-0.0696848	0.315013	-0.124155	0	0	-0.273885	0.105837	-0.018945	-0.0337142	-0.373167	0.43777	0.723692	1.5708	0	0	0.067243	-0.229344	0.491464	0.66303	1.5708	0	0
22.65	2.91694	1.35378	-1.23996	0.658031	-0.216214	0.949108	-0.249792	0.037254	-0.0234292	0.288338	-0.182215	0	0	-0.257958	-0.113713	-0.0687772	0.31393	-0.124386	0	0	-0.273585	0.10612	-0.0186298	-0.0337339	-0.373029	0.435055	0.724226	1.5708	0	0	0.0672305	-0.229408	0.490573	0.663145	1.5708	0	0
22.66	2.91706	1.35412	-1.24008	0.658038	-0.216329	0.949117	-0.249598	0.0371455	-0.0229107	0.287834	-0.182333	0	0	-0.257929	-0.113574	-0.0680721	0.312849	-0.124748	0	0	-0.273368	0.106193	-0.0183469	-0.0336925	-0.372937	0.432817	0.72475	1.5708	0	0	0.0672388	-0.229536	0.489808	0.663574	1.5708	0	0
22.67	2.91688	1.35449	-1.23995	0.658053	-0.216451	0.949118	-0.249406	0.0370947	-0.0223481	0.287134	-0.182511	0	0	-0.257801	-0.113451	-0.0674188	0.311828	-0.125214	0	0	-0.273119	0.106283	-0.0180332	-0.0336673	-0.37301	0.431067	0.725504	1.5708	0	0	0.0671527	-0.229745	0.489144	0.664299	1.5708	0	0
22.68	2.91633	1.35494	-1.23952	0.658084	-0.2166	0.949117	-0.249112	0.0370998	-0.0214899	0.286324	-0.182681	0	0	-0.257489	-0.11338	-0.0667923	0.311016	-0.125628	0	0	-0.272756	0.106501	-0.0175742	-0.0336516	-0.373256	0.429676	0.726332	1.5708	0	0	0.0669464	-0.230155	0.488499	0.665292	1.5708	0	0
22.69	2.91601	1.35533	-1.23931	0.658122	-0.216759	0.949129	-0.248904	0.0370988	-0.0207349	0.285459	-0.182802	0	0	-0.257108	-0.113301	-0.0663452	0.310519	-0.126072	0	0	-0.27253	0.106762	-0.0171842	-0.0332944	-0.373304	0.428286	0.726854	1.5708	0	0	0.0668146	-0.230542	0.488087	0.666105	1.5708	0	0
22.7	2.9155	1.35564	-1.23888	0.658159	-0.216922	0.949156	-0.248727	0.0371069	-0.0206781	0.284551	-0.183116	0	0	-0.256684	-0.113298	-0.0662378	0.310244	-0.126636	0	0	-0.272407	0.107082	-0.0168679	-0.0328032	-0.373257	0.427028	0.727224	1.5708	0	0	0.0668076	-0.230923	0.488299	0.666685	1.5708	0	0
22.71	2.91435	1.35592	-1.23779	0.658203	-0.217099	0.949184	-0.248522	0.0372615	-0.0208524	0.283619	-0.183662	0	0	-0.256203	-0.113442	-0.0662089	0.309899	-0.127259	0	0	-0.272373	0.107494	-0.0164644	-0.0323922	-0.373225	0.425783	0.727636	1.5708	0	0	0.0671327	-0.231223	0.488674	0.666982	1.5708	0	0
22.72	2.91252	1.35617	-1.2361	0.658279	-0.217226	0.949187	-0.248443	0.0376697	-0.0207202	0.282569	-0.184095	0	0	-0.255932	-0.113637	-0.0655436	0.309507	-0.127483	0	0	-0.272227	0.107961	-0.0160159	-0.0320346	-0.373262	0.42502	0.728093	1.5708	0	0	0.0673915	-0.231399	0.488581	0.667184	1.5708	0	0
22.73	2.90959	1.35634	-1.23357	0.658394	-0.21731	0.949178	-0.248514	0.0383588	-0.0202368	0.28118	-0.184586	0	0	-0.255948	-0.113837	-0.0638607	0.308945	-0.127348	0	0	-0.272065	0.108555	-0.0153113	-0.0317633	-0.373307	0.424283	0.728602	1.5708	0	0	0.0675936	-0.231412	0.487997	0.667276	1.5708	0	0
22.74	2.90852	1.35666	-1.23257	0.65845	-0.217437	0.949182	-0.248543	0.038507	-0.020541	0.27967	-0.185245	0	0	-0.255681	-0.113852	-0.0634875	0.308387	-0.127283	0	0	-0.271964	0.108816	-0.0149242	-0.0314658	-0.373394	0.423596	0.729173	1.5708	0	0	0.067802	-0.231521	0.48772	0.667442	1.5708	0	0
22.75	2.90879	1.35714	-1.23268	0.65846	-0.217561	0.949186	-0.248462	0.0382811	-0.0216648	0.278152	-0.186258	0	0	-0.255025	-0.113813	-0.0644153	0.3082	-0.127491	0	0	-0.271745	0.108827	-0.014748	-0.0312608	-0.373464	0.422868	0.729745	1.5708	0	0	0.0679742	-0.231788	0.488187	0.667629	1.5708	0	0
22.76	2.90738	1.35742	-1.23145	0.658575	-0.217623	0.949166	-0.24835	0.038492	-0.0229116	0.277037	-0.18715	0	0	-0.254782	-0.113988	-0.0638043	0.307899	-0.127517	0	0	-0.271448	0.109024	-0.0142244	-0.0311338	-0.373416	0.422375	0.730205	1.5708	0	0	0.0680029	-0.232174	0.488448	0.667982	1.5708	0	0
22.77	2.90585	1.35766	-1.23013	0.658693	-0.217691	0.949155	-0.248183	0.0387613	-0.0238788	0.276196	-0.187713	0	0	-0.254612	-0.114147	-0.0630527	0.307492	-0.127504	0	0	-0.271293	0.109235	-0.0136819	-0.0309931	-0.373437	0.422118	0.730705	1.5708	0	0	0.0681673	-0.232305	0.488109	0.668058	1.5708	0	0
22.78	2.90475	1.35795	-1.2292	0.658785	-0.217767	0.94916	-0.247986	0.0389469	-0.024457	0.275321	-0.188238	0	0	-0.254354	-0.11421	-0.062704	0.307083	-0.127633	0	0	-0.271218	0.10935	-0.0132466	-0.0309271	-0.373564	0.421972	0.73134	1.5708	0	0	0.0683814	-0.232227	0.487273	0.667932	1.5708	0	0
22.79	2.90408	1.35822	-1.22881	0.65887	-0.217861	0.94918	-0.247708	0.0389938	-0.0246688	0.274688	-0.188725	0	0	-0.254036	-0.114191	-0.0628454	0.306877	-0.127856	0	0	-0.271254	0.10937	-0.012788	-0.0308467	-0.373801	0.42202	0.732037	1.5708	0	0	0.0684453	-0.232163	0.486385	0.66804	1.5708	0	0
22.8	2.90394	1.35833	-1.22877	0.658941	-0.217983	0.949207	-0.247523	0.0390187	-0.0249048	0.274447	-0.189151	0	0	-0.253769	-0.114155	-0.0628056	0.306836	-0.128056	0	0	-0.271522	0.109404	-0.0125126	-0.0304865	-0.373901	0.422039	0.732499	1.5708	0	0	0.0685027	-0.232221	0.485785	0.668351	1.5708	0	0
22.81	2.90516	1.35836	-1.22977	0.658977	-0.218111	0.949236	-0.24743	0.038788	-0.0256179	0.274482	-0.189531	0	0	-0.253612	-0.113857	-0.0622014	0.306815	-0.128195	0	0	-0.271964	0.109198	-0.0125325	-0.0301692	-0.373928	0.422135	0.732841	1.5708	0	0	0.0686415	-0.232389	0.485401	0.668736	1.5708	0	0
22.82	2.90683	1.35839	-1.23114	0.659007	-0.218172	0.949244	-0.247417	0.038486	-0.0267246	0.274622	-0.189832	0	0	-0.25367	-0.113504	-0.0615068	0.306647	-0.128303	0	0	-0.272235	0.108837	-0.0126483	-0.0302026	-0.373968	0.422312	0.733218	1.5708	0	0	0.0685843	-0.23268	0.485063	0.669268	1.5708	0	0
22.83	2.90694	1.3583	-1.23132	0.659065	-0.218232	0.949267	-0.247295	0.038495	-0.0272205	0.274908	-0.190003	0	0	-0.253853	-0.11343	-0.0612295	0.306383	-0.128386	0	0	-0.272555	0.108832	-0.0125052	-0.0301578	-0.374039	0.422482	0.733492	1.5708	0	0	0.0683476	-0.233049	0.484951	0.670009	1.5708	0	0
22.84	2.90625	1.35812	-1.23093	0.659151	-0.218324	0.949305	-0.247172	0.038747	-0.0268412	0.275236	-0.190056	0	0	-0.254027	-0.11353	-0.0612243	0.306238	-0.128465	0	0	-0.273031	0.108989	-0.0121136	-0.0300336	-0.374131	0.422591	0.733706	1.5708	0	0	0.0681615	-0.233428	0.485275	0.670845	1.5708	0	0
22.85	2.90624	1.35797	-1.23097	0.659232	-0.218383	0.949334	-0.247242	0.0389374	-0.0265908	0.275343	-0.190001	0	0	-0.254141	-0.113578	-0.0611335	0.306197	-0.128543	0	0	-0.273472	0.108891	-0.0118745	-0.0300834	-0.374035	0.422475	0.73372	1.5708	0	0	0.0681491	-0.233688	0.485134	0.671565	1.5708	0	0
22.86	2.90609	1.3579	-1.23082	0.659295	-0.218449	0.94936	-0.247288	0.0391377	-0.0264961	0.275313	-0.18998	0	0	-0.254133	-0.113598	-0.0608299	0.306081	-0.128739	0	0	-0.273901	0.108748	-0.0116116	-0.0302666	-0.374023	0.422367	0.73373	1.5708	0	0	0.0680401	-0.233971	0.484736	0.672544	1.5708	0	0
22.87	2.90634	1.35814	-1.23095	0.659339	-0.218465	0.949351	-0.247254	0.0391343	-0.0268001	0.27494	-0.189996	0	0	-0.253932	-0.11346	-0.0605753	0.305883	-0.128906	0	0	-0.273826	0.108505	-0.0115765	-0.0307528	-0.374152	0.422507	0.733869	1.5708	0	0	0.0677306	-0.234189	0.484172	0.673378	1.5708	0	0
22.88	2.9061	1.35839	-1.23066	0.659387	-0.218496	0.949337	-0.247195	0.0392224	-0.0268306	0.274325	-0.190105	0	0	-0.253721	-0.11344	-0.0603798	0.305667	-0.128993	0	0	-0.273731	0.108422	-0.0116723	-0.0308564	-0.374299	0.423039	0.73375	1.5708	0	0	0.0673129	-0.234358	0.483606	0.674264	1.5708	0	0
